<svg xmlns="http://www.w3.org/2000/svg" viewBox="0 0 240 240" role="img" aria-labelledby="title desc">
  <title id="title">Remy celebrating</title><desc id="desc">A happy hamster librarian celebrating a completed inventory task.</desc>
  <rect width="240" height="240" rx="36" fill="#edf7e8"/>
  <path d="M35 35l8 17m12-25l-2 19m150-11l-8 17m-12-25l2 19" stroke="#e2a72e" stroke-width="6" stroke-linecap="round"/>
  <circle cx="73" cy="69" r="29" fill="#c9824b" stroke="#593a2b" stroke-width="6"/><circle cx="167" cy="69" r="29" fill="#c9824b" stroke="#593a2b" stroke-width="6"/><circle cx="73" cy="69" r="15" fill="#f2b99a"/><circle cx="167" cy="69" r="15" fill="#f2b99a"/>
  <ellipse cx="120" cy="127" rx="77" ry="78" fill="#d99459" stroke="#593a2b" stroke-width="7"/><ellipse cx="120" cy="145" rx="52" ry="48" fill="#f1c397"/>
  <path d="M80 106q11 14 22 0m36 0q11 14 22 0" fill="none" stroke="#28221f" stroke-width="6" stroke-linecap="round"/><path d="M109 128 Q120 138 131 128 Q120 117 109 128Z" fill="#8e4d45"/>
  <path d="M97 145q23 28 46 0" fill="#fff" stroke="#593a2b" stroke-width="4" stroke-linejoin="round"/><path d="M82 129H48m36 12H43m115-12h34m-36 12h41" stroke="#593a2b" stroke-width="3" stroke-linecap="round"/>
  <path d="M74 177L48 157m118 20l26-20" stroke="#593a2b" stroke-width="9" stroke-linecap="round"/><rect x="83" y="179" width="74" height="42" rx="5" fill="#2f765e" stroke="#24483c" stroke-width="6"/><path d="M120 182v36" stroke="#e9d9a8" stroke-width="4"/>
</svg>
